<?xml version="1.0" standalone="no"?>
<!DOCTYPE svg PUBLIC "-//W3C//DTD SVG 20010904//EN"
 "http://www.w3.org/TR/2001/REC-SVG-20010904/DTD/svg10.dtd">
<svg version="1.0" xmlns="http://www.w3.org/2000/svg"
 width="300.000000pt" height="300.000000pt" viewBox="0 0 300.000000 300.000000"
 preserveAspectRatio="xMidYMid meet">
<metadata>
Created by potrace 1.10, written by Peter Selinger 2001-2011
</metadata>
<g transform="translate(0.000000,300.000000) scale(0.100000,-0.100000)"
fill="#000000" stroke="none">
<path d="M1611 2715 c-25 -21 -49 -69 -67 -132 -6 -24 -54 10 -64 47 -16 57
-24 63 -88 68 -52 4 -62 1 -81 -19 -11 -12 -21 -33 -21 -45 0 -12 -7 -29 -15
-38 -8 -8 -19 -26 -25 -40 -14 -37 -55 -35 -74 3 -19 36 -80 89 -122 107 -19
8 -62 14 -98 14 -58 0 -67 -3 -85 -26 -16 -20 -21 -41 -21 -85 0 -50 -3 -59
-17 -59 -15 0 -18 10 -18 67 0 68 0 68 -35 86 -30 15 -53 16 -150 12 -222 -11
-240 -19 -240 -104 0 -62 22 -91 76 -100 35 -6 39 -9 40 -36 2 -115 4 -126 30
-152 24 -24 25 -26 10 -58 -23 -47 -21 -146 3 -176 10 -14 24 -57 30 -99 7
-41 19 -97 28 -124 19 -59 87 -133 131 -142 38 -8 34 7 67 -288 25 -224 25
-231 8 -280 -14 -40 -18 -83 -18 -196 0 -158 6 -188 71 -325 24 -51 35 -91 39
-145 13 -146 33 -173 125 -173 50 0 65 4 85 23 24 22 28 23 58 11 93 -37 144
-46 272 -44 98 0 150 6 209 22 115 31 235 92 303 155 l58 53 95 6 c194 12 280
101 268 277 -4 53 -13 80 -47 142 -37 67 -42 83 -39 130 3 59 -4 55 90 41 48
-7 109 22 172 81 44 41 46 44 46 100 0 51 -4 61 -28 84 -82 77 -212 102 -256
51 -13 -15 -47 -34 -79 -44 -93 -29 -150 -97 -172 -205 -11 -53 -12 -54 -25
-31 -7 13 -15 62 -18 107 -4 69 -1 95 18 153 20 63 25 71 54 77 54 11 123 52
155 91 62 75 93 214 72 328 -14 76 -35 95 -105 95 -59 0 -74 -9 -106 -65 -13
-22 -32 -50 -43 -62 l-20 -22 -41 42 c-80 83 -195 114 -382 104 l-111 -6 -16
37 c-9 20 -21 56 -27 79 -13 51 -32 63 -100 63 -63 0 -93 -28 -115 -104 -30
-109 -28 -159 11 -313 15 -55 -30 -147 -115 -236 -35 -38 -99 -83 -106 -76 -1
2 -10 65 -19 139 l-17 135 39 32 c67 55 76 95 76 336 l1 208 250 -4 c226 -3
305 3 305 21 0 4 4 13 9 21 7 11 12 11 32 -2 20 -13 70 -15 299 -15 152 0 316
-3 366 -7 151 -12 201 27 192 147 -5 70 -26 96 -84 105 -22 3 -54 19 -72 35
-44 38 -119 40 -154 5 -23 -24 -24 -24 -219 -19 l-196 4 -18 56 c-10 34 -31
70 -50 89 -29 29 -39 33 -88 33 -45 0 -61 -5 -86 -25z m173 -27 c13 -18 30
-53 37 -78 7 -25 16 -49 21 -55 5 -6 78 -11 171 -11 89 -1 181 -5 204 -9 39
-7 43 -5 52 18 19 50 115 47 152 -4 17 -24 27 -29 61 -29 63 0 78 -20 78 -100
0 -59 -3 -69 -28 -93 l-28 -27 -289 5 c-160 2 -336 4 -393 4 -99 1 -103 2
-114 26 -12 27 -28 24 -28 -5 0 -47 -12 -49 -310 -47 -154 1 -280 2 -280 1 0
0 7 -15 16 -33 11 -23 14 -45 9 -79 -3 -26 -5 -100 -5 -165 3 -174 -17 -232
-97 -287 l-21 -15 19 -154 c10 -84 20 -156 22 -158 6 -5 61 32 109 73 51 43
114 134 134 193 16 50 16 53 -6 122 -30 92 -25 210 13 292 23 50 28 55 65 61
75 11 96 -6 121 -101 6 -22 19 -51 29 -63 17 -21 20 -21 104 -9 73 10 100 9
182 -5 53 -9 113 -25 134 -35 39 -21 95 -70 111 -99 15 -26 40 -6 86 71 43 72
66 85 132 72 51 -9 66 -52 61 -175 -3 -75 -9 -107 -29 -150 -41 -88 -104 -140
-194 -159 -24 -6 -33 -17 -54 -66 -35 -85 -36 -204 -1 -297 14 -38 28 -68 32
-68 5 0 8 19 8 43 0 105 53 202 133 241 28 15 60 26 72 26 12 0 31 13 44 31
22 30 26 31 85 27 50 -3 71 -11 118 -42 47 -32 57 -44 62 -74 10 -63 -5 -93
-74 -145 -56 -42 -68 -47 -115 -47 -35 0 -57 5 -65 15 -18 22 -28 19 -45 -15
-29 -56 -17 -110 55 -240 25 -45 28 -176 5 -224 -39 -82 -122 -125 -253 -131
-83 -3 -85 -4 -126 -43 -129 -123 -319 -192 -529 -192 -107 0 -202 18 -266 48
l-37 18 -26 -28 c-46 -50 -157 -34 -172 25 -3 12 -10 62 -15 111 -7 62 -19
106 -40 150 -61 127 -75 181 -75 311 -1 92 4 135 18 184 22 69 20 104 -21 448
l-17 142 -30 7 c-81 17 -137 103 -159 247 -9 56 -21 95 -33 108 -28 31 -25
133 4 183 27 45 27 46 3 46 -32 0 -44 28 -49 115 l-4 83 -41 6 c-59 10 -67 20
-67 87 0 75 -1 75 202 84 150 7 156 7 177 -14 26 -26 30 -101 6 -121 -21 -18
-9 -30 29 -30 l33 0 5 72 c5 59 10 75 28 90 25 20 85 24 141 8 46 -13 112 -70
133 -115 16 -33 21 -36 54 -33 30 2 37 8 43 31 4 16 14 34 22 40 8 7 18 29 21
49 6 31 12 39 41 48 18 6 50 8 69 5 27 -6 37 -14 45 -37 6 -17 11 -39 11 -49
0 -11 9 -19 23 -21 12 -2 26 -13 32 -25 5 -13 12 -23 15 -23 3 0 14 30 24 66
11 36 30 79 43 95 23 26 31 29 88 29 60 0 65 -2 89 -32z"/>
<path d="M1671 2639 c-41 -44 -106 -338 -66 -297 3 3 8 29 12 57 3 28 9 53 12
56 4 2 34 7 67 10 l61 7 7 -51 c4 -28 11 -51 16 -51 33 0 -39 270 -76 284 -8
3 -22 -4 -33 -15z m64 -86 c9 -30 15 -56 13 -58 -2 -1 -30 -6 -62 -10 -50 -6
-58 -5 -53 8 3 9 11 35 17 59 15 54 38 82 56 67 7 -6 20 -36 29 -66z"/>
<path d="M1378 2624 c-8 -15 4 -274 13 -274 11 0 11 237 0 264 -4 11 -10 15
-13 10z"/>
<path d="M937 2593 c-2 -5 -2 -64 1 -132 l5 -123 41 6 c51 9 81 28 107 69 26
41 18 81 -23 124 -46 47 -119 78 -131 56z m91 -43 c37 -23 61 -70 54 -106 -6
-33 -57 -74 -92 -74 l-29 0 -3 100 c-3 94 -2 100 17 100 11 0 35 -9 53 -20z"/>
<path d="M562 2583 c-68 -3 -92 -7 -89 -16 2 -8 23 -11 66 -9 l63 4 -7 -89
c-7 -86 -2 -133 14 -133 3 0 7 50 6 110 l0 110 52 0 c28 0 58 3 67 6 28 11 6
24 -37 22 -23 -1 -84 -4 -135 -5z"/>
<path d="M668 2527 c-11 -26 -10 -177 1 -177 5 0 11 14 15 30 7 39 26 39 26 1
0 -32 17 -51 25 -28 9 22 -13 68 -35 74 -15 4 -20 15 -22 62 -2 37 -6 50 -10
38z"/>
<path d="M1442 2508 c-13 -13 -16 -38 -4 -38 4 0 13 9 19 20 14 22 2 35 -15
18z"/>
<path d="M2335 2486 c6 -29 4 -36 -9 -36 -9 0 -22 -11 -28 -25 -9 -21 -9 -29
4 -41 13 -13 20 -14 37 -4 17 9 26 8 38 -2 18 -15 18 -11 -9 86 -16 60 -43 78
-33 22z m15 -70 c0 -17 -27 -29 -35 -16 -4 6 -3 15 0 20 9 15 35 12 35 -4z"/>
<path d="M1810 2478 c0 -21 32 -98 41 -98 11 0 59 71 59 87 0 25 -20 13 -38
-24 l-19 -37 -12 37 c-13 37 -31 59 -31 35z"/>
<path d="M1951 2461 c-24 -24 -27 -63 -6 -81 22 -18 68 1 80 34 18 53 -34 87
-74 47z m50 -40 c-15 -26 -41 -27 -41 -1 0 21 31 43 43 30 5 -4 4 -17 -2 -29z"/>
<path d="M2082 2464 c-25 -17 -29 -56 -8 -73 18 -15 68 -11 74 6 2 9 -5 11
-27 7 -23 -5 -32 -2 -37 10 -8 21 13 46 37 46 11 0 19 5 19 10 0 15 -33 12
-58 -6z"/>
<path d="M1462 2448 c-17 -17 -15 -35 5 -47 18 -9 11 -26 -9 -26 -6 0 -13 -6
-16 -13 -6 -20 38 -11 52 10 8 13 6 22 -9 38 -19 21 -19 21 3 27 12 3 22 9 22
14 0 13 -34 11 -48 -3z"/>
<path d="M2182 2443 c-17 -33 9 -69 37 -53 10 5 19 3 27 -8 7 -10 16 -14 20
-10 4 4 2 13 -4 20 -5 7 -12 24 -14 38 -4 32 -51 41 -66 13z"/>
<path d="M2437 2453 c-21 -5 -39 -46 -31 -68 9 -23 60 -19 78 7 20 28 20 33 0
52 -16 17 -17 17 -47 9z m31 -40 c-2 -10 -13 -19 -26 -21 -24 -4 -29 7 -10 26
18 18 40 15 36 -5z"/>
<path d="M1217 2444 c-6 -7 39 -104 49 -104 7 0 43 81 44 98 0 25 -21 11 -27
-18 -8 -42 -18 -45 -33 -10 -14 33 -24 43 -33 34z"/>
<path d="M1337 2443 c-11 -10 -8 -93 3 -93 6 0 10 23 10 50 0 51 -1 55 -13 43z"/>
<path d="M1132 2428 c-19 -19 -14 -56 9 -68 25 -14 61 -9 67 9 3 10 -1 12 -18
8 -25 -6 -50 1 -50 14 0 5 9 9 20 9 13 0 20 7 20 20 0 23 -29 27 -48 8z"/>
<path d="M773 2418 c-18 -23 -21 -57 -8 -68 17 -14 67 -9 73 7 2 9 -5 11 -27
7 -20 -4 -31 -2 -31 5 0 6 7 11 15 11 21 0 31 30 14 41 -19 12 -25 11 -36 -3z"/>
<path d="M954 2215 c-18 -44 -18 -69 0 -62 20 8 24 -9 32 -136 6 -95 4 -118
-10 -145 -16 -31 -60 -62 -71 -50 -3 3 -14 76 -26 163 -11 87 -23 163 -26 168
-3 5 3 6 16 2 32 -10 27 21 -9 57 -36 36 -53 28 -72 -33 -13 -44 -6 -58 17
-39 13 11 15 6 15 -41 0 -55 16 -212 26 -261 5 -24 2 -28 -18 -28 -64 0 -96
57 -118 208 -14 98 -15 112 -2 110 8 -2 17 2 19 7 4 12 -51 75 -66 75 -14 0
-38 -38 -47 -74 -6 -26 -5 -29 14 -24 24 7 21 17 43 -140 19 -136 66 -203 146
-207 l38 -3 7 -58 c28 -244 57 -515 58 -544 1 -19 -8 -62 -20 -95 -16 -43 -22
-83 -22 -142 0 -96 19 -167 72 -272 33 -66 39 -89 45 -172 4 -53 11 -102 15
-109 8 -13 46 -9 44 6 -1 5 -5 41 -9 79 l-7 70 34 -32 c50 -47 123 -90 197
-115 85 -29 243 -31 341 -4 120 32 228 92 301 166 58 59 69 66 90 58 37 -15
159 -5 202 16 49 24 79 68 85 125 3 40 -2 58 -41 131 -55 105 -68 183 -43 258
19 56 45 84 98 107 62 25 76 21 80 -25 l3 -40 67 47 c37 27 66 52 64 58 -3 13
-119 83 -128 78 -5 -2 -8 -17 -8 -34 0 -27 -2 -29 -39 -29 -76 0 -133 -38
-174 -115 -17 -32 -21 -57 -21 -127 0 -83 2 -91 42 -168 23 -44 42 -91 42
-105 0 -39 -27 -83 -63 -102 -31 -17 -148 -25 -162 -12 -3 4 1 30 11 58 27 82
16 175 -33 301 -72 182 -76 269 -20 436 l30 92 50 5 c96 12 165 85 188 200 12
58 5 147 -12 147 -5 0 -14 -11 -19 -25 -17 -45 -62 -105 -95 -125 -20 -12 -50
-20 -78 -20 -38 0 -48 4 -58 23 -23 45 -83 97 -133 114 -73 26 -248 25 -295 0
-33 -18 -34 -18 -60 0 -47 35 -83 98 -89 152 -2 28 -9 51 -14 51 -14 0 -45
-78 -53 -132 -8 -52 14 -142 43 -178 17 -21 17 -25 -10 -108 -41 -127 -120
-230 -228 -300 -71 -46 -110 -78 -137 -114 l-21 -30 -6 54 c-4 29 -15 136 -27
238 -11 102 -23 203 -26 225 -5 40 -4 41 35 57 48 19 77 61 86 123 6 39 -5
175 -20 250 -6 26 -5 28 10 16 13 -11 17 -11 22 3 7 19 -40 76 -63 76 -8 0
-21 -16 -29 -35z m445 -305 c12 -28 26 -48 31 -45 6 4 10 1 10 -4 0 -6 7 -11
15 -11 24 0 18 -13 -25 -55 -22 -21 -40 -37 -40 -34 0 2 -9 29 -20 59 -20 56
-25 96 -14 124 10 27 21 18 43 -34z m388 -72 c65 -24 108 -71 129 -144 20 -71
14 -103 -41 -224 -77 -170 -89 -252 -71 -480 7 -86 5 -117 -8 -168 -47 -178
-137 -278 -297 -332 -53 -18 -81 -21 -164 -18 -86 3 -109 8 -165 34 -97 47
-153 101 -200 197 -68 140 -75 264 -21 409 32 84 82 141 180 207 140 95 209
186 256 338 28 92 63 136 134 173 82 41 171 44 268 8z m144 -72 c21 -28 29
-52 30 -85 2 -44 2 -45 8 -11 6 32 9 35 39 32 59 -4 111 16 158 64 32 33 44
40 44 27 0 -25 -31 -103 -41 -103 -5 0 -9 -6 -9 -13 0 -24 -66 -87 -92 -87
-14 0 -40 -5 -58 -11 -26 -9 -34 -9 -42 2 -7 11 -8 9 -6 -6 3 -26 -20 -95 -39
-117 -8 -9 -12 -22 -7 -29 4 -8 3 -10 -4 -5 -8 5 -12 -1 -13 -16 -3 -52 -9
-94 -18 -113 -16 -34 -19 -84 -4 -89 8 -4 13 3 14 17 1 17 2 18 6 5 2 -10 -3
-32 -11 -49 -11 -23 -13 -36 -5 -48 8 -13 9 -12 4 6 -3 12 -1 24 5 28 5 3 11
0 11 -7 1 -7 2 -17 3 -23 2 -19 38 -111 59 -149 11 -21 22 -53 25 -70 13 -72
4 -203 -17 -259 -24 -62 -169 -177 -277 -221 -66 -27 -194 -58 -194 -47 0 9
-87 7 -96 -2 -24 -24 -179 25 -264 83 -77 52 -84 66 -16 29 74 -40 183 -62
271 -55 185 15 312 100 388 261 41 86 47 136 45 360 -3 233 -2 239 76 406 20
42 36 85 36 95 0 11 4 25 9 32 9 16 -9 114 -28 152 -8 14 -27 40 -45 59 l-31
34 29 -19 c16 -10 42 -36 57 -58z m520 -475 c23 -19 23 -20 4 -27 -11 -4 -22
-11 -25 -16 -4 -4 -16 -1 -28 7 -20 15 -20 17 -4 35 20 25 24 25 53 1z m-201
-581 c0 -13 -46 -60 -58 -60 -5 0 5 16 22 34 35 39 36 40 36 26z"/>
<path d="M1520 1720 c0 -16 49 -90 60 -90 15 0 12 9 -15 57 -24 40 -45 56 -45
33z"/>
<path d="M1729 1640 c-42 -22 -69 -50 -48 -50 23 1 103 44 107 58 5 17 -17 14
-59 -8z"/>
<path d="M1560 1490 c0 -25 25 -36 45 -20 21 18 18 32 -5 25 -11 -4 -20 -2
-20 4 0 6 -4 11 -10 11 -5 0 -10 -9 -10 -20z"/>
<path d="M1292 1263 c-25 -9 -70 -40 -106 -74 -84 -78 -128 -170 -134 -281 -4
-69 -2 -84 22 -132 44 -89 149 -142 270 -134 156 10 240 149 241 403 0 122
-20 169 -88 210 -52 30 -135 33 -205 8z m172 -17 c43 -18 76 -61 76 -100 0
-24 3 -27 10 -16 11 17 12 6 11 -100 -5 -282 -129 -416 -328 -353 -62 19 -137
78 -129 100 3 8 2 12 -3 8 -9 -5 -13 8 -27 87 -8 46 10 127 43 191 73 146 233
231 347 183z"/>
<path d="M1945 930 c0 -16 3 -30 7 -30 10 0 20 38 13 50 -12 19 -20 10 -20
-20z"/>
<path d="M1907 734 c3 -8 -3 -24 -12 -34 -10 -11 -13 -20 -7 -20 11 0 42 38
42 51 0 4 -7 9 -14 12 -10 4 -13 1 -9 -9z"/>
<path d="M1785 629 c4 -5 -1 -19 -11 -30 -21 -24 -13 -36 10 -14 18 18 22 55
5 55 -5 0 -7 -5 -4 -11z"/>
<path d="M1714 505 c-4 -8 -14 -15 -23 -15 -9 0 -25 -13 -35 -28 -19 -27 -19
-27 0 -10 10 9 31 21 47 27 15 6 27 17 27 26 0 19 -9 19 -16 0z"/>
</g>
</svg>
